# xmcd
#
# Track frame offsets:
#	150
#	15857
#	32907
#	51247
#	68037
#	86332
#	102668
#	120030
#	140720
#	157234
#	174900
#	193831
#	212041
#	227713
#	243862
#	263191
#	282502
#	297595
#	315466
#	331183
#
# Disc length: 4639 seconds
#
# Revision: 1
# Processed by: cddbd v1.5.2PL0 Copyright (c) Steve Scherf et al.
# Submitted via: audiograbber 1.83.01
#
DISCID=20121d14
DTITLE=BLUE - One Love
DYEAR=2002
DGENRE=Blues
TTITLE0=One Love
TTITLE1=Riders
TTITLE2=Flexin'
TTITLE3=Sorry Seems To Be The Hardest Word (featuring Elton John)
TTITLE4=She Told Me
TTITLE5=Right Here Waiting
TTITLE6=U Make Me Wanna
TTITLE7=Ain't Got You
TTITLE8=Supersexual
TTITLE9=Don't Treat Me Like A Fool
TTITLE10=Get Down
TTITLE11=Privacy
TTITLE12=Without You
TTITLE13=Invitation
TTITLE14=Like A Friend
TTITLE15=Blue Eyed Colour Girl (Bonus Track)
TTITLE16=Best In Me (Bonus Track)
TTITLE17=Fly By II (Bonus Track)
TTITLE18=If You Come Back (Bonus Track)
TTITLE19=Al Rise (Bonus Track)
EXTD=
EXTT0=
EXTT1=
EXTT2=
EXTT3=
EXTT4=
EXTT5=
EXTT6=
EXTT7=
EXTT8=
EXTT9=
EXTT10=
EXTT11=
EXTT12=
EXTT13=
EXTT14=
EXTT15=
EXTT16=
EXTT17=
EXTT18=
EXTT19=
PLAYORDER=
